<?xml version="1.0" standalone="no"?>
<!DOCTYPE svg PUBLIC "-//W3C//DTD SVG 20010904//EN"
 "http://www.w3.org/TR/2001/REC-SVG-20010904/DTD/svg10.dtd">
<svg version="1.0" xmlns="http://www.w3.org/2000/svg"
 width="700.000000pt" height="700.000000pt" viewBox="0 0 700.000000 700.000000"
 preserveAspectRatio="xMidYMid meet">
<metadata>
Created by potrace 1.14, written by Peter Selinger 2001-2017
</metadata>
<g transform="translate(0.000000,700.000000) scale(0.100000,-0.100000)"
fill="#000000" stroke="none">
<path d="M3970 6096 c-122 -41 -204 -78 -310 -139 -74 -42 -266 -170 -280
-186 -3 -3 -30 -26 -60 -51 -365 -295 -647 -752 -761 -1235 -24 -101 -24 -102
-33 -168 -4 -27 -9 -58 -11 -70 -16 -82 -22 -335 -11 -473 7 -88 9 -109 22
-184 3 -19 8 -46 10 -60 2 -14 7 -36 10 -50 3 -14 7 -32 9 -40 12 -58 49 -180
78 -261 22 -59 34 -110 33 -135 -6 -118 -140 -189 -250 -133 -86 43 -252 313
-306 496 -37 126 -46 170 -58 268 -9 80 -9 315 1 392 10 86 49 233 85 325 18
47 25 75 17 70 -24 -13 -158 -146 -211 -207 -309 -364 -488 -860 -488 -1355 0
-132 22 -311 54 -440 105 -427 255 -706 530 -980 312 -313 691 -509 1110 -574
213 -34 559 -39 730 -12 14 3 59 10 100 16 236 37 491 125 685 237 321 187
573 466 722 803 47 105 97 255 109 327 3 15 7 35 10 44 2 9 7 32 9 50 2 19 8
63 13 99 10 67 8 356 -2 400 -3 13 -8 42 -11 65 -32 221 -124 435 -300 700
-139 209 -259 327 -565 555 -385 288 -506 429 -640 745 -30 71 -69 230 -86
350 -10 73 -12 277 -3 338 4 28 10 68 12 87 13 94 50 219 100 338 19 45 34 82
34 81 -1 0 -45 -15 -97 -33z m-274 -2383 c106 -195 195 -303 395 -473 181
-155 290 -283 344 -406 157 -354 8 -826 -321 -1020 -339 -200 -677 -168 -992
94 -28 24 -50 47 -47 52 3 4 21 11 41 15 20 3 44 10 53 15 9 4 45 22 81 40
118 58 197 123 294 241 37 45 105 185 125 258 32 115 24 273 -22 456 -19 77
-38 157 -41 179 -4 21 -8 41 -10 45 -16 25 -24 260 -12 350 9 77 51 241 61
241 2 0 25 -39 51 -87z"/>
</g>
</svg>
